<svg version="1.1" id="Layer_1" xmlns="http://www.w3.org/2000/svg" xmlns:xlink="http://www.w3.org/1999/xlink" x="0px" y="0px"
	 width="100%" viewBox="0 0 1024 1024" enable-background="new 0 0 1024 1024" xml:space="preserve">
<path fill="#000000" opacity="1.000000" stroke="none" 
	d="
M382.941711,558.000000 
	C382.927979,481.173523 382.887054,404.846985 382.941772,328.520569 
	C382.946167,322.376038 383.002472,316.122864 384.085846,310.109589 
	C386.616913,296.060730 396.174500,288.425812 409.288300,284.677124 
	C460.900543,269.923431 513.033752,257.143646 564.992920,243.706482 
	C602.158997,234.094971 639.347778,224.570221 676.561584,215.145447 
	C688.493347,212.123627 700.061279,212.789886 710.363831,220.452621 
	C719.513062,227.257523 723.084229,236.867065 723.290161,247.861282 
	C723.496155,258.856537 723.469299,269.860596 723.282959,280.856354 
	C723.219177,284.622772 724.590454,285.726898 728.233643,285.725922 
	C734.539673,285.724213 740.861816,285.124451 747.163818,286.383881 
	C768.535034,290.655029 783.175720,308.013855 783.297058,329.847900 
	C783.438782,355.344879 783.336548,380.843231 783.336304,406.340973 
	C783.335205,518.164490 783.345703,629.987976 783.321350,741.811462 
	C783.315674,767.785645 768.212219,785.980957 742.682190,790.845337 
	C740.414246,791.277466 738.047913,791.329041 735.727234,791.329407 
	C630.569824,791.346375 525.412415,791.348755 420.255035,791.322083 
	C402.008148,791.317444 388.346619,781.300659 384.292664,764.848083 
	C383.141418,760.175903 382.886261,755.319153 382.887848,750.480896 
	C382.909058,686.487244 382.923248,622.493652 382.941711,558.000000 
M756.654663,661.500061 
	C756.654236,584.023376 756.653503,506.546661 756.653320,429.069946 
	C756.653259,397.579346 756.689087,366.088684 756.637207,334.598175 
	C756.617126,322.367828 751.246094,314.835663 741.021667,312.756836 
	C738.286621,312.200745 735.390076,312.328857 732.567688,312.328491 
	C629.265076,312.314209 525.962524,312.321350 422.659912,312.327240 
	C412.857880,312.327789 410.340668,314.843872 410.340454,324.750946 
	C410.337677,467.208557 410.340851,609.666199 410.349335,752.123779 
	C410.349915,761.706726 412.450409,763.828369 422.090973,763.832336 
	C447.250061,763.842651 472.409180,763.793579 497.568268,763.787231 
	C577.544250,763.767090 657.520203,763.774719 737.496155,763.715515 
	C747.060364,763.708435 754.179138,757.644775 755.501282,748.408936 
	C756.183716,743.642395 756.565735,738.792908 756.588501,733.978577 
	C756.701111,710.152893 756.648621,686.326355 756.654663,661.500061 
M575.896301,269.505157 
	C557.100525,274.588654 538.304749,279.672150 519.508972,284.755646 
	C527.104797,285.632355 534.563965,285.631866 542.023071,285.632446 
	C590.630737,285.636383 639.238464,285.641754 687.846130,285.643616 
	C696.643799,285.643921 696.646423,285.637360 696.654480,276.592255 
	C696.659668,270.765991 696.341614,264.919312 696.718689,259.117523 
	C697.624329,245.184280 692.535645,238.373779 675.859253,242.976990 
	C642.890076,252.077515 609.760925,260.598236 575.896301,269.505157 
z"/>
<path fill="#000000" opacity="1.000000" stroke="none" 
	d="
M328.488159,529.512512 
	C318.958069,520.171326 309.703796,511.053253 300.393951,501.992340 
	C292.792603,494.594299 288.870026,494.391144 281.326508,501.623444 
	C274.373505,508.289581 267.783813,515.334717 260.763458,522.488831 
	C254.475327,516.515930 248.584137,510.933441 242.710831,505.332214 
	C241.141602,503.835663 241.546356,502.414886 242.954636,501.036041 
	C251.639664,492.532593 259.658417,483.300995 269.233337,475.767303 
	C281.160187,466.383148 297.608856,465.898132 310.317627,474.204407 
	C313.093292,476.018555 315.830322,478.000946 318.208191,480.296356 
	C331.029510,492.673035 343.859741,505.045471 356.438263,517.667175 
	C368.075317,529.344116 371.870270,543.896301 371.612122,560.047363 
	C371.346863,576.645447 364.279053,589.596619 352.444550,600.756287 
	C340.814789,611.722961 329.379211,622.943542 318.503357,634.651855 
	C294.091309,660.932251 252.303757,659.419128 229.047348,635.488831 
	C223.011612,629.278137 216.767044,623.255432 210.981339,616.820007 
	C198.971252,603.461426 196.658875,587.254211 198.182281,570.152405 
	C198.883560,562.279724 201.455444,554.899658 205.404388,548.027771 
	C206.479446,546.156860 207.454361,544.202271 209.877777,542.842041 
	C215.915421,548.789795 222.037109,554.817383 228.154724,560.849182 
	C229.578033,562.252563 228.567276,563.555725 228.039413,564.945251 
	C223.125641,577.880005 223.814804,589.965759 233.310150,600.839050 
	C238.910385,607.251953 244.806717,613.396545 251.238480,618.924255 
	C263.335968,629.321350 282.052734,629.792847 293.988800,619.261841 
	C308.970123,606.043945 323.072632,591.804565 336.381226,576.910645 
	C347.316498,564.672729 346.144928,547.697998 334.745850,535.768921 
	C332.789948,533.722107 330.744232,531.761047 328.488159,529.512512 
z"/>
<path fill="#000000" opacity="1.000000" stroke="none" 
	d="
M314.377502,407.408234 
	C300.347198,405.292145 289.889496,410.488220 280.604309,420.287872 
	C266.741730,434.918579 252.070267,448.779236 237.940002,463.161133 
	C227.900223,473.379639 222.857651,485.387268 226.427048,499.953003 
	C227.347336,503.708405 228.880859,507.249878 231.339233,510.253082 
	C238.012787,518.405396 245.898621,525.377991 253.938568,532.076660 
	C259.258484,536.509094 265.805603,535.828918 271.275482,530.879944 
	C276.701538,525.970581 281.671844,520.556641 286.824982,515.347107 
	C289.039337,513.108521 291.210449,510.827240 294.040466,507.905151 
	C299.993958,514.285889 305.764130,520.416443 311.461426,526.613953 
	C312.885864,528.163452 311.627441,529.401367 310.563995,530.461182 
	C302.072998,538.922913 294.086548,547.950623 284.455597,555.171021 
	C269.168030,566.632263 246.731705,564.829163 232.145264,551.087341 
	C226.446457,545.718445 220.910614,540.172363 215.402084,534.606567 
	C202.010590,521.075867 197.430206,504.708191 198.269058,485.874298 
	C199.050827,468.321350 206.761581,454.877350 218.886307,443.026550 
	C234.138596,428.118835 249.640991,413.407013 264.034515,397.693787 
	C289.443146,369.955627 337.514679,374.720978 359.815063,405.621460 
	C376.741180,429.075073 377.518646,466.913147 349.336945,490.739777 
	C347.093262,492.636719 345.533600,492.851196 343.451752,490.675140 
	C339.421478,486.462616 335.317078,482.311035 331.065430,478.323944 
	C328.435425,475.857513 328.277893,474.149780 331.087616,471.468689 
	C337.438080,465.409027 341.925385,458.290070 343.852264,449.379730 
	C347.547394,432.292694 335.411133,413.895325 318.680023,408.441650 
	C317.417816,408.030212 316.106110,407.770721 314.377502,407.408234 
z"/>
<path fill="#000000" opacity="1.000000" stroke="none" 
	d="
M495.541016,410.524658 
	C517.029602,391.275513 541.735901,379.466003 570.103943,376.929016 
	C602.241211,374.054932 631.832336,382.226196 658.172180,401.137115 
	C688.035034,422.577484 706.505005,451.484253 711.949036,487.799622 
	C718.471436,531.307983 707.107788,569.903015 675.392456,601.002258 
	C652.984314,622.975098 625.583374,635.416321 594.033875,638.470459 
	C534.125671,644.269958 472.387787,606.255981 457.489929,540.893982 
	C446.103699,490.938568 458.162994,447.020081 495.541016,410.524658 
M489.145050,453.844116 
	C482.114349,465.934052 477.946625,478.963898 476.299408,492.830902 
	C475.926025,495.974274 476.600006,497.977051 480.387756,497.929321 
	C489.373230,497.816101 498.361420,497.850220 507.347809,497.918335 
	C510.592773,497.942902 511.448090,496.359985 511.742828,493.316467 
	C512.669128,483.751495 513.783081,474.195374 515.211426,464.694031 
	C515.635376,461.873962 514.854126,460.809448 512.437866,459.908905 
	C506.211914,457.588470 500.054535,455.083679 493.876984,452.634308 
	C492.280151,452.001129 490.714722,451.331116 489.145050,453.844116 
M655.248474,490.613312 
	C655.452087,497.928711 655.452087,497.943359 662.759644,497.949432 
	C670.421143,497.955841 678.087585,497.761658 685.742126,497.987000 
	C689.812744,498.106873 691.205139,496.480286 690.606567,492.664642 
	C688.528137,479.416290 684.596436,466.781555 678.148254,454.978424 
	C677.207947,453.257141 676.192566,451.975525 673.824158,452.881378 
	C667.149414,455.434265 660.439636,457.900177 653.698303,460.271484 
	C651.409485,461.076569 651.024719,462.743561 651.458984,464.622803 
	C653.369446,472.890625 653.937927,481.347778 655.248474,490.613312 
M514.706360,547.317444 
	C513.740845,539.242371 512.591553,531.183228 511.893036,523.085083 
	C511.578674,519.441040 510.143066,518.199463 506.590942,518.269897 
	C498.432434,518.431763 490.268341,518.293335 482.106537,518.311462 
	C476.364594,518.324219 475.581726,518.985840 476.435516,524.661316 
	C478.328491,537.244690 482.289032,549.180115 488.151184,560.506348 
	C489.743134,563.582214 491.494537,564.071350 494.497040,562.549622 
	C499.983551,559.768982 505.404541,556.735107 511.397980,555.172668 
	C515.547302,554.091064 516.325500,551.777222 514.706360,547.317444 
M690.458435,519.912598 
	C689.842896,518.326843 688.434143,518.346436 687.111206,518.342834 
	C677.782532,518.317566 668.453064,518.391907 659.125488,518.286560 
	C655.757202,518.248535 655.326843,520.253784 655.371887,522.829163 
	C655.538757,532.365723 653.870605,541.694214 651.896301,550.951111 
	C651.309631,553.701355 651.929871,554.919312 654.446289,555.839600 
	C660.069641,557.896057 665.711304,559.948547 671.166931,562.400085 
	C674.307861,563.811401 675.870056,563.116760 677.485107,560.219238 
	C684.372314,547.862976 688.835388,534.743469 690.458435,519.912598 
M607.508545,498.002502 
	C615.482178,497.990662 623.456787,497.904907 631.429077,498.002655 
	C634.694946,498.042694 636.073059,496.681702 635.585693,493.497070 
	C634.384155,485.645569 633.698425,477.724121 631.878113,469.951538 
	C631.178833,466.965515 629.890076,465.962189 627.111084,466.512970 
	C617.324829,468.452637 607.464478,469.651642 597.471741,469.367676 
	C594.119751,469.272400 593.141479,470.981628 593.231689,474.000488 
	C593.340942,477.651917 593.270996,481.308960 593.266785,484.963562 
	C593.251831,498.001556 593.249939,498.001556 607.508545,498.002502 
M532.997314,482.246490 
	C532.456970,486.021362 531.855469,489.788849 531.398560,493.573792 
	C531.107727,495.982361 531.612549,497.916565 534.692932,497.917175 
	C546.519165,497.919434 558.345459,497.971313 570.171692,497.976105 
	C571.996765,497.976837 573.571838,497.407196 573.582458,495.215454 
	C573.622498,486.943420 573.598450,478.671021 573.598450,470.338837 
	C564.747681,469.174377 556.437439,469.417786 548.194763,468.452209 
	C534.533447,466.851807 534.502258,467.117950 532.997314,482.246490 
M631.734924,546.924805 
	C633.974487,539.063110 634.397095,530.918823 635.417664,522.871338 
	C635.753845,520.220886 634.865356,518.345093 631.634399,518.363159 
	C620.153503,518.427429 608.671997,518.430298 597.191040,518.379333 
	C594.419739,518.367004 593.329407,519.568726 593.360107,522.294067 
	C593.434998,528.948792 593.398132,535.605286 593.353943,542.260681 
	C593.339111,544.489685 594.221069,545.622864 596.559875,545.720703 
	C607.181152,546.165283 617.729675,547.393250 628.253235,548.844116 
	C629.613464,549.031616 630.941772,549.386108 631.734924,546.924805 
M567.391296,545.928650 
	C570.007141,545.630371 573.567444,546.822144 573.604980,542.275635 
	C573.661255,535.448303 573.602295,528.620056 573.599976,521.792236 
	C573.599182,519.535583 572.465210,518.396912 570.230896,518.392395 
	C558.406921,518.368652 546.583008,518.349365 534.759033,518.353271 
	C532.528320,518.354004 531.296692,519.399048 531.617554,521.776733 
	C532.659912,529.500183 533.496399,537.251038 535.296570,544.861572 
	C536.028870,547.957275 537.728943,549.026001 540.707886,548.381409 
	C549.203430,546.542969 557.891724,546.751770 567.391296,545.928650 
M593.350098,598.491516 
	C593.556946,603.241394 592.894165,608.035400 593.783447,612.820129 
	C605.925293,609.286072 624.024902,583.867432 624.563538,569.690308 
	C615.865234,567.570190 606.955933,566.872925 598.016541,566.345093 
	C594.582092,566.142273 593.255981,567.575073 593.309509,571.022278 
	C593.446350,579.844666 593.352234,588.670532 593.350098,598.491516 
M573.593872,610.513367 
	C573.612793,597.519714 573.534485,584.524719 573.710876,571.533203 
	C573.762573,567.725403 572.620300,566.186096 568.592773,566.225586 
	C560.905884,566.300964 553.349121,567.351929 545.769897,568.369751 
	C542.621521,568.792480 541.818848,570.383118 543.038391,573.231628 
	C545.132568,578.123047 546.948730,583.149719 549.309265,587.907471 
	C553.432251,596.217651 559.276489,603.283325 566.423279,609.159668 
	C568.280029,610.686401 570.208130,613.731628 573.593872,610.513367 
M553.683289,421.127747 
	C549.064270,428.940002 545.091858,437.033478 542.192017,445.953461 
	C551.419067,448.347595 560.128662,448.769196 568.929443,448.747528 
	C572.748779,448.738129 573.748413,447.189880 573.706421,443.657410 
	C573.562073,431.524017 573.669128,419.387848 573.620850,407.252960 
	C573.613892,405.508270 574.088623,403.536041 572.271606,402.253723 
	C566.129822,404.232697 561.097839,409.285583 553.683289,421.127747 
M615.992676,447.554932 
	C617.786072,447.235657 619.576477,446.898834 621.373535,446.601471 
	C623.757935,446.206909 625.023010,445.268677 623.920959,442.554291 
	C618.452454,429.085297 612.376953,416.007660 601.167419,406.135803 
	C599.085693,404.302490 596.966980,402.488708 593.381531,401.745026 
	C593.381531,416.789581 593.365662,431.349792 593.396545,445.909882 
	C593.401978,448.470032 595.277222,448.551971 597.231689,448.686890 
	C603.245483,449.101929 609.151550,447.931030 615.992676,447.554932 
M506.841370,431.179535 
	C505.889893,432.445648 504.184723,433.256927 504.352753,435.384827 
	C508.736786,438.216309 513.925903,438.908356 518.760986,440.558167 
	C521.270813,441.414581 522.690063,440.673828 523.675903,438.091858 
	C526.878723,429.703461 530.343201,421.419189 534.965698,413.678436 
	C535.315674,413.092407 535.452271,412.437439 534.365234,411.422729 
	C524.118835,415.870728 515.468201,422.917328 506.841370,431.179535 
M527.276367,588.058167 
	C525.900085,584.496460 524.537659,580.929382 523.140564,577.375854 
	C522.598206,575.996216 522.132935,574.225403 520.095459,574.944702 
	C514.853455,576.795349 509.411652,578.194336 503.869507,581.277161 
	C512.970093,592.220764 523.756958,599.809143 536.868958,606.474426 
	C533.094177,600.002014 529.963440,594.566711 527.276367,588.058167 
M654.856079,589.356628 
	C657.437012,586.686462 660.837708,584.699341 662.279785,580.877808 
	C658.502197,578.408691 654.326660,577.696350 650.551392,576.036255 
	C646.711975,574.348083 644.618530,575.153870 643.205811,579.389648 
	C640.104736,588.687622 636.084045,597.613403 630.095459,606.265564 
	C639.248047,601.614746 647.148926,596.256348 654.856079,589.356628 
M656.524170,427.965393 
	C648.921509,421.236603 640.918396,415.114777 630.409363,410.175995 
	C636.324829,419.642456 640.117249,428.464783 643.373535,437.535492 
	C643.941956,439.118927 644.624268,441.030884 646.706421,440.543549 
	C652.112671,439.278137 657.540161,437.927155 662.081177,434.399048 
	C660.878906,431.617706 658.748169,430.211273 656.524170,427.965393 
z"/>
<path fill="#000000" opacity="1.000000" stroke="none" 
	d="
M575.999878,718.318481 
	C566.677185,718.300293 557.846497,718.510071 549.033813,718.203613 
	C538.906860,717.851318 533.629639,710.273621 536.373535,700.817627 
	C537.366028,697.397583 539.417480,695.308044 542.817505,694.671570 
	C545.089783,694.246155 547.430725,694.001648 549.741577,693.996887 
	C572.214844,693.950195 594.688232,693.969543 617.161621,693.977600 
	C618.492371,693.978088 619.830688,693.963623 621.152649,694.090088 
	C630.141968,694.950562 632.436523,697.494202 632.340698,706.415771 
	C632.261414,713.796326 628.499695,717.879883 620.443970,718.135071 
	C609.134827,718.493347 597.807617,718.286682 586.488159,718.316833 
	C583.158752,718.325684 579.829346,718.318237 575.999878,718.318481 
z"/>
</svg>